<?xml version="1.0" encoding="UTF-8"?>
<svg xmlns="http://www.w3.org/2000/svg" viewBox="0 0 200 200">
  <defs>
    <style>
      .cls-1 {
        fill: #000;
      }

      .cls-1, .cls-2, .cls-3, .cls-4, .cls-5, .cls-6, .cls-7 {
        stroke-width: 0px;
      }

      .cls-2 {
        fill: blue;
      }

      .cls-3 {
        fill: #ff0;
      }

      .cls-8 {
        stroke: gray;
      }

      .cls-8, .cls-9 {
        fill: none;
        stroke-linecap: round;
        stroke-miterlimit: 10;
        stroke-width: 4px;
      }

      .cls-9 {
        stroke: #000;
      }

      .cls-4 {
        fill: red;
      }

      .cls-5 {
        fill: gray;
      }

      .cls-6 {
        fill: lime;
      }

      .cls-7 {
        fill: #e8751e;
      }
    </style>
  </defs>
  <g id="Layer_1" data-name="Layer 1">
    <rect class="cls-4" x="192.05" y="17.05" width="7.89" height="51.89" rx="3" ry="3"/>
    <rect class="cls-7" x="192.05" y="74.05" width="7.89" height="51.89" rx="3" ry="3"/>
    <rect class="cls-7" x="192.05" y="132.05" width="7.89" height="51.89" rx="3" ry="3"/>
    <rect class="cls-2" x="6.05" y="132.05" width="7.89" height="51.89" rx="3" ry="3"/>
    <rect class="cls-6" x="6.05" y="74.05" width="7.89" height="51.89" rx="3" ry="3"/>
    <rect class="cls-2" x="6.05" y="17.05" width="7.89" height="51.89" rx="3" ry="3"/>
    <rect class="cls-7" x="18.05" y="6.05" width="51.89" height="7.89" rx="3" ry="3"/>
    <rect class="cls-4" x="77.05" y="6.05" width="51.89" height="7.89" rx="3" ry="3"/>
    <rect class="cls-6" x="136.05" y="6.05" width="51.89" height="7.89" rx="3" ry="3"/>
    <rect class="cls-6" x="136.05" y="186.05" width="51.89" height="7.89" rx="3" ry="3"/>
    <rect class="cls-2" x="77.05" y="186.05" width="51.89" height="7.89" rx="3" ry="3"/>
    <rect class="cls-4" x="18.05" y="186.05" width="51.89" height="7.89" rx="3" ry="3"/>
    <g id="Top_Yellow" data-name="Top Yellow">
      <rect class="cls-3" x="17.95" y="17.05" width="51.89" height="51.89" rx="4.78" ry="4.78"/>
      <rect class="cls-3" x="77" y="17.05" width="51.89" height="51.89" rx="4.78" ry="4.78"/>
      <rect class="cls-3" x="136.05" y="17.05" width="51.89" height="51.89" rx="4.78" ry="4.78"/>
      <rect class="cls-3" x="136.05" y="74.32" width="51.89" height="51.89" rx="4.78" ry="4.78"/>
      <rect class="cls-3" x="136.05" y="131.58" width="51.89" height="51.89" rx="4.78" ry="4.78"/>
      <rect class="cls-3" x="77" y="131.58" width="51.89" height="51.89" rx="4.78" ry="4.78"/>
      <rect class="cls-3" x="77" y="74.32" width="51.89" height="51.89" rx="4.78" ry="4.78"/>
      <rect class="cls-3" x="17.95" y="74.32" width="51.89" height="51.89" rx="4.78" ry="4.78"/>
      <rect class="cls-3" x="17.95" y="131.58" width="51.89" height="51.89" rx="4.78" ry="4.78"/>
    </g>
  </g>
  <g id="Layer_2" data-name="Layer 2">
    <g>
      <g>
        <line class="cls-8" x1="43" y1="146.39" x2="43" y2="49"/>
        <polygon class="cls-5" points="48.98 144.64 43 155 37.02 144.64 48.98 144.64"/>
      </g>
      <g>
        <line class="cls-8" x1="56.61" y1="45" x2="151" y2="45"/>
        <polygon class="cls-5" points="58.36 50.98 48 45 58.36 39.02 58.36 50.98"/>
      </g>
      <g>
        <line class="cls-8" x1="147.91" y1="59.09" x2="51" y2="156"/>
        <polygon class="cls-5" points="142.44 56.1 154 53 150.9 64.56 142.44 56.1"/>
      </g>
    </g>
    <g>
      <line class="cls-9" x1="102" y1="158" x2="102" y2="52.61"/>
      <polygon class="cls-1" points="107.98 54.36 102 44 96.02 54.36 107.98 54.36"/>
    </g>
    <g>
      <line class="cls-9" x1="92" y1="47" x2="52.76" y2="90.6"/>
      <polygon class="cls-1" points="49.48 85.29 47 97 58.38 93.3 49.48 85.29"/>
    </g>
    <g>
      <line class="cls-9" x1="49" y1="109" x2="88.98" y2="149.85"/>
      <polygon class="cls-1" points="83.48 152.78 95 156 92.03 144.41 83.48 152.78"/>
    </g>
  </g>
</svg>