<?xml version="1.0" encoding="UTF-8"?>
<svg xmlns="http://www.w3.org/2000/svg" viewBox="0 0 200 200">
  <defs>
    <style>
      .cls-1 {
        fill: #000;
      }

      .cls-1, .cls-2, .cls-3, .cls-4, .cls-5, .cls-6, .cls-7 {
        stroke-width: 0px;
      }

      .cls-2 {
        fill: blue;
      }

      .cls-3 {
        fill: #ff0;
      }

      .cls-8 {
        stroke: gray;
      }

      .cls-8, .cls-9 {
        fill: none;
        stroke-linecap: round;
        stroke-miterlimit: 10;
        stroke-width: 4px;
      }

      .cls-9 {
        stroke: #000;
      }

      .cls-4 {
        fill: red;
      }

      .cls-5 {
        fill: gray;
      }

      .cls-6 {
        fill: lime;
      }

      .cls-7 {
        fill: #e8751e;
      }
    </style>
  </defs>
  <g id="Layer_1" data-name="Layer 1">
    <rect class="cls-2" x="189.05" y="17.05" width="7.89" height="51.89" rx="3" ry="3"/>
    <rect class="cls-4" x="189.05" y="74.05" width="7.89" height="51.89" rx="3" ry="3"/>
    <rect class="cls-2" x="189.05" y="132.05" width="7.89" height="51.89" rx="3" ry="3"/>
    <rect class="cls-4" x="3.05" y="132.05" width="7.89" height="51.89" rx="3" ry="3"/>
    <rect class="cls-2" x="3.05" y="74.05" width="7.89" height="51.89" rx="3" ry="3"/>
    <rect class="cls-7" x="3.05" y="17.05" width="7.89" height="51.89" rx="3" ry="3"/>
    <rect class="cls-6" x="15.05" y="6.05" width="51.89" height="7.89" rx="3" ry="3"/>
    <rect class="cls-7" x="74.05" y="6.05" width="51.89" height="7.89" rx="3" ry="3"/>
    <rect class="cls-4" x="133.05" y="6.05" width="51.89" height="7.89" rx="3" ry="3"/>
    <rect class="cls-7" x="133.05" y="186.05" width="51.89" height="7.89" rx="3" ry="3"/>
    <rect class="cls-6" x="74.05" y="186.05" width="51.89" height="7.89" rx="3" ry="3"/>
    <rect class="cls-6" x="15.05" y="186.05" width="51.89" height="7.89" rx="3" ry="3"/>
    <g id="Top_Yellow" data-name="Top Yellow">
      <rect class="cls-3" x="14.95" y="17.05" width="51.89" height="51.89" rx="4.78" ry="4.78"/>
      <rect class="cls-3" x="74" y="17.05" width="51.89" height="51.89" rx="4.78" ry="4.78"/>
      <rect class="cls-3" x="133.05" y="17.05" width="51.89" height="51.89" rx="4.78" ry="4.78"/>
      <rect class="cls-3" x="133.05" y="74.32" width="51.89" height="51.89" rx="4.78" ry="4.78"/>
      <rect class="cls-3" x="133.05" y="131.58" width="51.89" height="51.89" rx="4.78" ry="4.78"/>
      <rect class="cls-3" x="74" y="131.58" width="51.89" height="51.89" rx="4.78" ry="4.78"/>
      <rect class="cls-3" x="74" y="74.32" width="51.89" height="51.89" rx="4.78" ry="4.78"/>
      <rect class="cls-3" x="14.95" y="74.32" width="51.89" height="51.89" rx="4.78" ry="4.78"/>
      <rect class="cls-3" x="14.95" y="131.58" width="51.89" height="51.89" rx="4.78" ry="4.78"/>
    </g>
  </g>
  <g id="Layer_2" data-name="Layer 2">
    <g>
      <g>
        <line class="cls-8" x1="56.61" y1="43" x2="154" y2="43"/>
        <polygon class="cls-5" points="58.36 48.98 48 43 58.36 37.02 58.36 48.98"/>
      </g>
      <g>
        <line class="cls-8" x1="158" y1="56.61" x2="158" y2="151"/>
        <polygon class="cls-5" points="152.02 58.36 158 48 163.98 58.36 152.02 58.36"/>
      </g>
      <g>
        <line class="cls-8" x1="143.91" y1="147.91" x2="47" y2="51"/>
        <polygon class="cls-5" points="146.9 142.44 150 154 138.44 150.9 146.9 142.44"/>
      </g>
    </g>
    <g>
      <line class="cls-9" x1="52.61" y1="102" x2="158" y2="102"/>
      <polygon class="cls-1" points="54.36 107.98 44 102 54.36 96.02 54.36 107.98"/>
    </g>
    <g>
      <line class="cls-9" x1="148.6" y1="86.24" x2="105" y2="47"/>
      <polygon class="cls-1" points="151.3 80.62 155 92 143.29 89.52 151.3 80.62"/>
    </g>
    <g>
      <line class="cls-9" x1="86.85" y1="55.02" x2="46" y2="95"/>
      <polygon class="cls-1" points="81.41 51.97 93 49 89.78 60.52 81.41 51.97"/>
    </g>
  </g>
</svg>